<?xml version="1.0" encoding="UTF-8" standalone="no"?>
<!DOCTYPE svg PUBLIC "-//W3C//DTD SVG 1.1//EN" "http://www.w3.org/Graphics/SVG/1.1/DTD/svg11.dtd">
<svg width="100%" height="100%" viewBox="0 0 893 575" version="1.1" xmlns="http://www.w3.org/2000/svg" xmlns:xlink="http://www.w3.org/1999/xlink" xml:space="preserve" xmlns:serif="http://www.serif.com/" style="fill-rule:evenodd;clip-rule:evenodd;stroke-linejoin:round;stroke-miterlimit:2;">
    <g id="Artboard1" transform="matrix(0.924617,0,0,1,-135.048,0)">
        <rect x="146.058" y="0" width="964.752" height="575" style="fill:none;"/>
        <g transform="matrix(3.43171,0,0,3.17302,-656.464,-539.177)">
            <g>
                <g transform="matrix(1,0,0,1,-6.25302,8.40798)">
                    <g transform="matrix(1,0,0,1,-130.76,-190.278)">
                        <g transform="matrix(0.961327,0,0,0.961327,463.564,345.394)">
                            <path d="M62.061,111.919C56.589,112.81 51.289,114.73 46.249,117.015C43.804,118.123 40.328,120.711 39.134,123.202C37.256,127.121 36.638,132.245 35.496,136.444C36.846,136.819 38.196,137.194 39.546,137.568C38.525,137.899 37.504,138.229 36.482,138.559C35.93,138.737 38.898,157.716 39.129,159.545C39.536,162.776 39.704,166.155 40.524,169.31C41.299,172.292 41.585,174.167 44.854,175.075C57.754,178.655 70.654,182.236 83.554,185.817C84.05,184.18 84.547,182.545 85.043,180.909C89.066,181.357 93.089,181.806 97.112,182.254C96.945,182.236 96.317,151.598 96.151,148.775C95.606,139.484 96.299,129.222 90.438,121.329C85.32,114.436 76.31,111.223 67.726,111.393C65.82,111.431 63.93,111.615 62.061,111.919Z" style="fill:rgb(255,212,182);fill-rule:nonzero;"/>
                        </g>
                        <g transform="matrix(0.961327,0,0,0.961327,463.564,345.394)">
                            <path d="M73.671,139.67C73.671,135.279 70.344,132.352 65.82,132.352C61.296,132.352 57.903,135.279 57.903,139.67C57.903,144.06 61.296,147.055 65.82,147.055C70.344,147.055 73.671,144.06 73.671,139.67ZM86.178,125.211L86.178,152.377C86.178,166.015 78.461,172.469 65.022,172.469C58.103,172.469 48.865,170.51 43.9,165.95L51.716,158.897C54.71,161.293 59.633,162.755 63.891,162.755C70.677,162.755 73.538,159.696 73.538,154.04L73.538,152.843C71.076,155.703 67.417,157.101 62.827,157.101C53.246,157.101 45.13,150.315 45.13,139.67C45.13,129.092 53.246,122.306 62.827,122.306C67.817,122.306 71.675,123.903 74.136,127.296L74.136,122.905L86.178,125.211Z" style="fill:rgb(19,197,109);fill-rule:nonzero;"/>
                        </g>
                        <g transform="matrix(0.961327,0,0,0.961327,461.254,343.813)">
                            <path d="M73.671,139.67C73.671,135.279 70.344,132.352 65.82,132.352C61.296,132.352 57.903,135.279 57.903,139.67C57.903,144.06 61.296,147.055 65.82,147.055C70.344,147.055 73.671,144.06 73.671,139.67ZM86.178,125.211L86.178,152.377C86.178,166.015 78.461,172.469 65.022,172.469C58.103,172.469 48.865,170.51 43.9,165.95L51.716,158.897C54.71,161.293 59.633,162.755 63.891,162.755C70.677,162.755 73.538,159.696 73.538,154.04L73.538,152.843C71.076,155.703 67.417,157.101 62.827,157.101C53.246,157.101 45.13,150.315 45.13,139.67C45.13,129.092 53.246,122.306 62.827,122.306C67.817,122.306 71.675,123.903 74.136,127.296L74.136,122.905L86.178,125.211Z" style="fill:rgb(19,226,109);fill-rule:nonzero;"/>
                        </g>
                    </g>
                    <g transform="matrix(0.872958,0,0,0.872958,-54.0542,36.496)">
                        <path d="M427.933,346.086L409.514,345.475C409.683,345.413 409.867,345.303 410.072,345.144C409.71,344.893 409.405,344.714 409.151,344.714C408.916,344.714 408.726,344.866 408.574,345.253C408.67,345.34 408.766,345.407 408.862,345.453L362.361,343.91L360.17,341.937L424.933,344.086L411.709,292.665C411.855,292.666 412,292.669 412.145,292.669C412.32,292.669 412.494,292.665 412.669,292.653C412.765,292.645 412.939,292.48 412.925,292.425C412.878,292.246 412.783,291.962 412.666,291.942C412.506,291.915 412.342,291.907 412.177,291.907C411.967,291.907 411.754,291.919 411.544,291.919L411.544,292.021L411.517,291.918L411.543,291.918C411.45,291.465 411.775,290.936 411.319,290.572C411.26,290.535 411.203,290.506 411.148,290.482L409.982,285.949L413.455,263.713L416.732,263.938L415.401,272.461C415.217,272.499 415.051,272.577 414.911,272.686C415.029,272.903 415.151,273.126 415.265,273.333L412.982,287.949L426.449,340.313C426.314,340.463 426.211,340.647 426.197,340.911C426.34,340.937 426.482,340.962 426.622,340.988L427.933,346.086ZM414.112,344.135C414.009,344.235 413.924,344.317 413.839,344.4C414.009,344.482 414.172,344.592 414.352,344.633L414.605,344.4C414.438,344.311 414.271,344.221 414.112,344.135ZM426.531,342.441C425.935,343.061 425.967,343.471 426.417,344.031C426.766,343.979 427.188,343.915 427.264,343.904C427.042,343.459 426.791,342.96 426.531,342.441ZM413.457,293.406C412.907,293.904 412.907,294.4 413.457,294.898C414.007,294.4 414.007,293.904 413.457,293.406ZM415.118,267.492C414.937,267.532 414.774,267.644 414.604,267.726C414.689,267.809 414.774,267.891 414.877,267.991C415.036,267.905 415.203,267.815 415.37,267.726L415.118,267.492Z" style="fill:rgb(165,188,194);fill-rule:nonzero;"/>
                        <path d="M424.933,344.086L409.982,285.949L413.732,261.938L351.706,257.685L346.863,263.499L340.614,325.028L359.361,341.91L424.933,344.086Z" style="fill:rgb(255,212,182);fill-rule:nonzero;"/>
                        <path d="M373.131,301.939L377.787,301.939C382.274,301.939 385.63,301.069 387.85,299.325C390.071,297.582 391.18,294.704 391.18,290.694C391.18,287.639 390.25,285.179 388.387,283.317C386.525,281.454 383.946,280.523 380.652,280.523L374.421,280.523C373.561,280.523 373.131,280.929 373.131,281.741L373.131,301.939ZM402.354,290.335C402.354,294.3 401.209,297.617 398.917,300.291C396.625,302.966 392.971,304.757 387.958,305.663L404.575,324.716C405.72,326.053 407.082,327.069 408.657,327.76C410.233,328.452 411.833,328.798 413.456,328.798L413.456,331.663L396.481,331.663L378.717,309.889C377.524,308.457 376.485,307.49 375.602,306.988C374.718,306.488 373.895,306.237 373.131,306.237L373.131,320.275C373.131,322.042 373.25,323.487 373.489,324.609C373.728,325.731 374.206,326.603 374.922,327.223C375.638,327.844 376.676,328.261 378.038,328.476C379.398,328.691 381.224,328.798 383.516,328.798L383.516,331.663L355.082,331.663L355.082,328.798C356.657,328.798 357.934,328.691 358.914,328.476C359.892,328.261 360.656,327.856 361.206,327.258C361.754,326.662 362.125,325.826 362.316,324.751C362.506,323.677 362.602,322.305 362.602,320.633L362.602,287.542C362.602,285.871 362.531,284.523 362.387,283.495C362.244,282.469 361.933,281.658 361.456,281.06C360.979,280.464 360.298,280.058 359.415,279.843C358.531,279.628 357.349,279.473 355.87,279.377L355.87,276.512L380.652,276.512C387.575,276.512 392.923,277.73 396.696,280.165C400.467,282.6 402.354,285.992 402.354,290.335Z" style="fill:rgb(161,57,138);fill-rule:nonzero;"/>
                        <path d="M373.131,301.939L373.131,304.939L377.787,304.939C380.224,304.938 382.429,304.706 384.422,304.189C386.412,303.673 388.203,302.862 389.703,301.684L389.702,301.685C391.26,300.47 392.431,298.814 393.147,296.939C393.87,295.06 394.179,292.973 394.18,290.694C394.181,288.863 393.9,287.112 393.288,285.496C392.679,283.881 391.732,282.415 390.509,281.195C389.266,279.949 387.749,279.001 386.076,278.4C384.4,277.795 382.58,277.523 380.652,277.523L374.421,277.523C373.971,277.524 373.482,277.573 372.955,277.737C372.562,277.861 372.147,278.056 371.763,278.339C371.181,278.758 370.711,279.385 370.462,280.004C370.206,280.626 370.132,281.218 370.132,281.741L370.132,301.939C370.132,302.729 370.452,303.502 371.01,304.06C371.569,304.619 372.342,304.939 373.131,304.939L373.131,301.939L376.131,301.939L376.131,281.741L374.721,281.741L376.041,282.206C376.126,281.962 376.131,281.8 376.131,281.741L374.721,281.741L376.041,282.206L374.14,281.535L375.694,282.815C375.863,282.612 375.978,282.387 376.041,282.206L374.14,281.535L375.694,282.815L374.135,281.531L374.838,283.433C375.087,283.347 375.444,283.126 375.694,282.815L374.135,281.531L374.838,283.433L374.421,282.304L374.421,283.523C374.443,283.521 374.584,283.525 374.838,283.433L374.421,282.304L374.421,283.523L380.652,283.523C382.018,283.523 383.134,283.716 384.037,284.043C384.943,284.373 385.647,284.822 386.266,285.438C386.905,286.081 387.354,286.776 387.676,287.62C387.995,288.463 388.18,289.469 388.18,290.694C388.182,292.425 387.936,293.782 387.549,294.78C387.156,295.783 386.661,296.437 385.998,296.964L385.997,296.965C385.277,297.531 384.28,298.027 382.914,298.382C381.553,298.737 379.837,298.94 377.787,298.939L373.131,298.939L373.131,301.939L376.131,301.939L373.131,301.939ZM405.354,290.335L399.354,290.335C399.354,292.03 399.111,293.509 398.659,294.818C398.205,296.128 397.545,297.279 396.639,298.339C395.791,299.327 394.658,300.2 393.137,300.947C391.619,301.692 389.717,302.297 387.424,302.711C386.36,302.904 385.485,303.65 385.127,304.67C384.769,305.691 384.986,306.82 385.697,307.635L402.314,326.688L402.297,326.668C403.715,328.328 405.466,329.639 407.451,330.507C409.372,331.353 411.405,331.8 413.456,331.798L413.456,328.798L410.456,328.798L410.456,331.663L413.456,331.663L413.456,328.663L397.905,328.663L381.042,307.993L381.022,307.968C380.363,307.179 379.727,306.49 379.088,305.894C378.446,305.299 377.804,304.791 377.083,304.379L377.082,304.379C375.884,303.7 374.563,303.239 373.131,303.237C372.342,303.237 371.569,303.557 371.01,304.115C370.452,304.674 370.132,305.447 370.132,306.237L370.132,320.275C370.134,322.178 370.251,323.798 370.556,325.235L370.555,325.232C370.726,326.036 370.997,326.818 371.396,327.546C371.793,328.273 372.323,328.942 372.959,329.491L372.957,329.49C373.607,330.053 374.345,330.474 375.119,330.785C375.895,331.097 376.711,331.303 377.57,331.439C379.182,331.692 381.128,331.796 383.516,331.798L383.516,328.798L380.516,328.798L380.516,331.663L383.516,331.663L383.516,328.663L355.082,328.663L355.082,331.663L358.082,331.663L358.082,328.798L355.082,328.798L355.082,331.798C356.796,331.796 358.251,331.689 359.556,331.406C360.272,331.249 360.969,331.009 361.627,330.66C362.284,330.312 362.899,329.85 363.414,329.288L363.413,329.29C363.934,328.724 364.338,328.076 364.638,327.399C364.938,326.72 365.139,326.011 365.27,325.277L365.27,325.274C365.504,323.941 365.601,322.422 365.602,320.633L365.602,287.542C365.601,285.784 365.531,284.326 365.358,283.08L365.359,283.081C365.164,281.69 364.713,280.336 363.801,279.188L363.797,279.183C363.332,278.601 362.754,278.106 362.124,277.732C361.493,277.356 360.815,277.096 360.125,276.928L360.123,276.928C358.969,276.65 357.651,276.488 356.063,276.384L355.87,279.377L358.87,279.377L358.87,276.512L355.87,276.512L355.87,279.512L380.652,279.512C383.938,279.511 386.789,279.803 389.189,280.35C391.592,280.897 393.536,281.696 395.069,282.686C396.615,283.688 397.64,284.779 398.318,285.993C398.99,287.21 399.35,288.594 399.354,290.335L405.354,290.335C405.359,287.733 404.774,285.249 403.561,283.076C402.353,280.899 400.548,279.077 398.323,277.645C396.083,276.2 393.467,275.171 390.521,274.5C387.574,273.83 384.289,273.513 380.652,273.512L355.87,273.512C355.08,273.512 354.307,273.832 353.748,274.391C353.19,274.949 352.87,275.722 352.87,276.512L352.87,279.377C352.87,280.961 354.095,282.269 355.676,282.371C357.047,282.458 358.093,282.607 358.707,282.758L358.706,282.758C358.898,282.805 359.002,282.856 359.051,282.885L359.115,282.936L359.112,282.931C359.154,282.979 359.325,283.248 359.416,283.91L359.416,283.911C359.531,284.719 359.603,285.959 359.602,287.542L359.602,320.633C359.604,322.188 359.508,323.413 359.362,324.229L359.363,324.225C359.302,324.566 359.222,324.812 359.152,324.969C359.081,325.128 359.025,325.197 358.998,325.226L358.997,325.228C358.963,325.264 358.921,325.303 358.813,325.361C358.707,325.417 358.534,325.488 358.27,325.546C357.617,325.692 356.519,325.801 355.082,325.798C354.292,325.798 353.519,326.118 352.96,326.677C352.402,327.235 352.082,328.008 352.082,328.798L352.082,331.663C352.082,332.453 352.402,333.226 352.96,333.785C353.519,334.343 354.292,334.663 355.082,334.663L383.516,334.663C384.306,334.663 385.079,334.343 385.638,333.785C386.196,333.226 386.516,332.453 386.516,331.663L386.516,328.798C386.516,328.008 386.196,327.235 385.638,326.677C385.079,326.118 384.306,325.798 383.516,325.798C381.321,325.8 379.614,325.69 378.506,325.513C378.003,325.434 377.62,325.324 377.357,325.218C377.092,325.112 376.953,325.014 376.887,324.956L376.886,324.955C376.805,324.884 376.738,324.807 376.657,324.662C376.579,324.519 376.491,324.303 376.424,323.986L376.423,323.982C376.248,323.175 376.129,321.907 376.131,320.275L376.131,306.237L373.131,306.237L373.131,309.237C373.226,309.234 373.553,309.275 374.123,309.598L374.121,309.598C374.283,309.687 374.602,309.914 374.999,310.285C375.398,310.656 375.878,311.168 376.413,311.81L378.717,309.889L376.393,311.785L394.157,333.56C394.726,334.257 395.581,334.663 396.481,334.663L413.456,334.663C414.246,334.663 415.018,334.343 415.577,333.785C416.136,333.226 416.456,332.453 416.456,331.663L416.456,328.798C416.456,328.008 416.136,327.235 415.577,326.677C415.018,326.118 414.246,325.798 413.456,325.798C412.26,325.796 411.094,325.551 409.863,325.013C408.697,324.498 407.726,323.778 406.853,322.764L406.836,322.744L390.219,303.692L387.958,305.663L388.491,308.616C391.212,308.123 393.643,307.38 395.778,306.334C397.91,305.29 399.75,303.93 401.195,302.243C402.58,300.63 403.639,298.785 404.331,296.777C405.025,294.768 405.355,292.605 405.354,290.335Z" style="fill:rgb(19,197,109);fill-rule:nonzero;"/>
                        <path d="M371.131,299.939L375.787,299.939C380.274,299.939 383.63,299.069 385.85,297.325C388.071,295.582 389.18,292.704 389.18,288.694C389.18,285.639 388.25,283.179 386.387,281.317C384.525,279.454 381.946,278.523 378.652,278.523L372.421,278.523C371.561,278.523 371.131,278.929 371.131,279.741L371.131,299.939ZM400.354,288.335C400.354,292.3 399.209,295.618 396.917,298.291C394.625,300.966 390.971,302.757 385.958,303.663L402.575,322.716C403.72,324.053 405.082,325.069 406.657,325.76C408.233,326.452 409.833,326.798 411.456,326.798L411.456,329.663L394.481,329.663L376.717,307.889C375.524,306.457 374.486,305.489 373.602,304.989C372.718,304.488 371.895,304.237 371.131,304.237L371.131,318.275C371.131,320.042 371.25,321.487 371.489,322.609C371.728,323.731 372.206,324.603 372.922,325.223C373.638,325.844 374.677,326.261 376.038,326.476C377.398,326.691 379.224,326.798 381.516,326.798L381.516,329.663L353.082,329.663L353.082,326.798C354.657,326.798 355.934,326.691 356.914,326.476C357.892,326.261 358.656,325.856 359.206,325.258C359.754,324.662 360.125,323.826 360.316,322.751C360.506,321.677 360.602,320.305 360.602,318.633L360.602,285.542C360.602,283.871 360.531,282.523 360.387,281.495C360.244,280.469 359.933,279.657 359.456,279.06C358.979,278.464 358.298,278.058 357.415,277.843C356.531,277.628 355.349,277.473 353.87,277.377L353.87,274.512L378.652,274.512C385.575,274.512 390.923,275.73 394.696,278.165C398.467,280.6 400.354,283.992 400.354,288.335Z" style="fill:rgb(19,226,109);fill-rule:nonzero;"/>
                    </g>
                    <g transform="matrix(0.78211,0,0,0.78211,233.698,-83.1029)">
                        <path d="M136.201,521.515C129.667,521.515 124.342,520.178 120.229,517.505C116.115,514.832 113.092,511.178 111.162,506.544C109.231,501.911 108.266,496.653 108.266,490.772C108.266,484.92 109.387,479.715 111.629,475.156C113.872,470.596 117.073,467.002 121.231,464.373C125.389,461.745 130.38,460.43 136.201,460.43C141.043,460.43 145.224,461.18 148.743,462.68C152.263,464.18 155.159,466.282 157.432,468.985C159.704,471.688 161.39,474.866 162.489,478.519C163.588,482.173 164.137,486.168 164.137,490.505C164.137,494.515 163.602,498.376 162.533,502.089C161.464,505.802 159.808,509.114 157.565,512.025C155.323,514.935 152.434,517.245 148.899,518.953C145.365,520.661 141.132,521.515 136.201,521.515ZM136.513,503.648C138.919,503.648 140.991,502.928 142.729,501.487C144.466,500.047 145.795,498.168 146.716,495.851C147.637,493.534 148.097,491.084 148.097,488.5C148.097,486.658 147.904,484.913 147.518,483.265C147.132,481.616 146.523,480.168 145.691,478.92C144.86,477.673 143.753,476.693 142.372,475.98C140.991,475.267 139.29,474.911 137.271,474.911C135.221,474.911 133.335,475.609 131.612,477.005C129.889,478.401 128.508,480.265 127.469,482.596C126.429,484.928 125.909,487.49 125.909,490.282C125.909,492.896 126.221,495.205 126.845,497.21C127.469,499.215 128.553,500.789 130.097,501.933C131.642,503.077 133.781,503.648 136.513,503.648Z" style="fill-rule:nonzero;"/>
                    </g>
                    <g transform="matrix(0.82534,0,0,0.82534,345.037,-105.584)">
                        <path d="M132.86,520.445C127.454,520.445 123.206,519.354 120.117,517.171C117.028,514.987 114.711,511.817 113.167,507.658C111.563,503.322 110.582,497.953 110.226,491.552C109.87,485.151 109.691,477.821 109.691,469.564C109.691,468.792 109.699,468.019 109.714,467.247C109.728,466.475 109.743,465.68 109.758,464.863C109.773,464.047 109.795,463.215 109.825,462.368C109.855,461.522 109.884,460.653 109.914,459.762C111.459,459.613 113.011,459.487 114.57,459.383C116.129,459.279 117.607,459.227 119.003,459.227C120.815,459.227 122.634,459.279 124.461,459.383C126.288,459.487 127.944,459.613 129.429,459.762C129.251,461.871 129.095,464.136 128.961,466.557C128.828,468.977 128.731,471.465 128.672,474.019C128.612,476.574 128.583,479.114 128.583,481.638C128.583,484.43 128.649,486.866 128.783,488.945C128.917,491.024 129.147,492.762 129.474,494.158C129.86,495.762 130.402,496.943 131.1,497.7C131.798,498.458 132.711,498.836 133.84,498.836C135.385,498.836 136.543,498.331 137.315,497.322C138.088,496.312 138.6,494.96 138.852,493.267C139.105,491.574 139.231,489.688 139.231,487.609C139.231,486.51 139.216,484.987 139.187,483.042C139.157,481.096 139.112,478.958 139.053,476.626C138.993,474.294 138.919,472.007 138.83,469.764C138.741,467.522 138.652,465.532 138.563,463.794C138.474,462.057 138.385,460.816 138.295,460.074C139.751,460.074 141.459,460.133 143.419,460.252C145.38,460.371 147.318,460.505 149.234,460.653C151.149,460.802 152.805,460.958 154.201,461.121C155.597,461.284 156.459,461.41 156.786,461.5C157.023,462.985 157.216,464.552 157.365,466.2C157.513,467.849 157.625,469.542 157.699,471.279C157.773,473.017 157.81,474.792 157.81,476.604C157.81,482.604 157.484,488.247 156.83,493.534C156.177,498.822 154.966,503.485 153.199,507.525C151.432,511.564 148.907,514.728 145.625,517.015C142.342,519.302 138.088,520.445 132.86,520.445Z" style="fill-rule:nonzero;"/>
                    </g>
                    <g transform="matrix(0.860313,0,0,0.860313,390.451,-123.435)">
                        <path d="M142.751,519.911C140.048,519.733 137.337,519.554 134.62,519.376C131.902,519.198 129.177,519.034 126.444,518.886C123.741,518.737 121.023,518.574 118.29,518.396C115.558,518.218 112.825,518.039 110.092,517.861C109.884,512.633 109.736,507.621 109.647,502.824C109.558,498.027 109.513,493.549 109.513,489.391C109.513,483.272 109.58,477.97 109.714,473.485C109.847,469 109.974,465.673 110.092,463.505C115.884,462.346 121.261,461.522 126.221,461.032C131.182,460.542 135.325,460.245 138.652,460.141C141.979,460.037 144.043,459.985 144.845,459.985C144.845,462.302 144.771,464.626 144.622,466.958C144.474,469.289 144.281,471.732 144.043,474.287L127.424,475.668C127.394,475.846 127.372,476.188 127.357,476.693C127.342,477.198 127.328,477.755 127.313,478.364C127.298,478.972 127.29,479.537 127.29,480.057L127.29,481.148C128.003,481.148 128.82,481.141 129.741,481.126C130.662,481.111 131.642,481.096 132.682,481.081C133.721,481.067 134.768,481.052 135.823,481.037C136.877,481.022 137.887,481.007 138.852,480.992C139.818,480.977 140.687,480.955 141.459,480.925L141.147,496.074C140.761,496.044 140.078,496 139.097,495.94C138.117,495.881 136.996,495.814 135.734,495.74C134.471,495.666 133.224,495.599 131.991,495.539C130.758,495.48 129.682,495.428 128.761,495.383C127.84,495.339 127.216,495.317 126.889,495.317C126.86,495.554 126.837,495.874 126.823,496.274C126.808,496.675 126.793,497.099 126.778,497.544C126.763,497.99 126.748,498.443 126.733,498.903C126.719,499.364 126.704,499.772 126.689,500.128C126.674,500.485 126.667,500.767 126.667,500.975L135.087,500.975C136.305,500.975 137.493,500.997 138.652,501.042C139.81,501.086 140.894,501.146 141.904,501.22C142.914,501.294 143.776,501.361 144.489,501.421C144.489,502.906 144.422,504.614 144.288,506.544C144.154,508.475 143.998,510.383 143.82,512.27C143.642,514.156 143.456,515.797 143.263,517.193C143.07,518.589 142.899,519.495 142.751,519.911Z" style="fill-rule:nonzero;"/>
                    </g>
                </g>
                <g transform="matrix(1,0,0,1,-2.08278,7.24861)">
                    <g transform="matrix(0.293468,-0.0392645,0.0405983,0.303436,217.858,48.278)">
                        <g transform="matrix(4.16667,0,0,4.16667,-1597.11,-77.8893)">
                            <path d="M435.32,121.315C426.077,123.893 416.834,126.471 407.589,129.048C408.359,129.922 409.128,130.796 409.897,131.67C407.415,132.982 406.603,136.081 406.041,138.832C404.71,145.348 403.378,151.864 402.047,158.38C405.22,166.154 408.041,173.969 411.215,181.742C423.515,183.032 435.511,184.707 447.811,185.998C450.185,177.482 452.558,168.967 454.932,160.451C453.735,159.978 452.643,159.78 451.447,159.307C452.988,159.479 454.529,159.651 456.07,159.822C458.704,152.371 451.769,146.449 454.401,138.998C446.791,133.187 448.602,125.709 440.991,119.898C439.28,120.126 436.983,120.851 435.32,121.315Z" style="fill:rgb(234,141,141);fill-rule:nonzero;"/>
                        </g>
                        <g transform="matrix(4.16667,0,0,4.16667,-1597.11,-77.8893)">
                            <path d="M426.219,132.392L413.755,165.074L418.873,176.069L442.687,176.069L442.687,165.175L426.726,164.618L440.407,134.672L426.219,132.392Z" style="fill:rgb(208,51,51);fill-rule:nonzero;"/>
                        </g>
                    </g>
                    <g transform="matrix(1,0,0,1,220.341,-276.541)">
                        <g transform="matrix(0.986123,0,0,0.986123,-229.955,161.206)">
                            <path d="M417.701,299.085C415.896,301.955 413.927,304.521 411.814,307.186C409.923,309.571 406.218,313.112 405.469,316.182C405.22,317.202 405.749,318.513 405.893,319.568C406.531,324.239 407.18,328.914 408.042,333.552C409.297,340.303 411.15,347.036 412.056,353.838C412.68,358.525 414.315,362.975 414.938,367.661C418.094,365.292 417.948,367.069 420.912,368.55C424.277,370.232 428.289,369.345 431.876,369.221C433.314,369.171 434.069,369.358 435.126,368.534C437.341,366.806 437.925,363.731 439.419,361.547C440.199,360.407 441.125,359.656 442.465,359.357C444.203,358.971 447.053,359.619 448.705,359.732C450.556,359.858 452.397,359.858 454.246,359.926C454.433,357.053 462.121,362.496 463.521,363.446C464.194,361.314 464.268,358.906 464.594,356.693C465.189,352.659 466.101,348.654 467.207,344.728C467.589,343.367 468.539,341.604 468.596,340.249C468.639,339.227 467.745,337.909 467.438,336.947C466.991,335.542 466.664,334.11 466.365,332.667C465.709,329.495 465.192,326.329 464.746,323.12C464.24,319.478 463.783,315.729 463.664,312.054C462.907,312.043 461.994,312.014 461.347,312.404C460.429,309.857 460.723,306.42 460.311,303.712C460.09,302.258 459.934,300.829 459.883,299.361C450.713,298.973 441.534,298.867 432.365,298.567C427.452,298.407 422.474,298.169 417.701,299.085Z" style="fill:rgb(234,141,141);fill-rule:nonzero;"/>
                        </g>
                        <g transform="matrix(0.986123,0,0,0.986123,-229.955,161.206)">
                            <path d="M413.041,314.994L450.008,353.632L457.468,345.949L427.739,308.535L413.041,314.994Z" style="fill:rgb(208,51,51);fill-rule:nonzero;"/>
                        </g>
                        <g transform="matrix(0.986123,0,0,0.986123,-229.955,161.206)">
                            <path d="M439.349,320.575L447.784,330.75L458.248,319.448L448.561,308.981L439.349,320.575Z" style="fill:rgb(208,51,51);fill-rule:nonzero;"/>
                        </g>
                        <g transform="matrix(0.986123,0,0,0.986123,-229.955,161.206)">
                            <path d="M437.134,342.25L429.088,333.49L419.276,345.837L427.628,352.519L437.134,342.25Z" style="fill:rgb(208,51,51);fill-rule:nonzero;"/>
                        </g>
                    </g>
                    <g transform="matrix(1.36809,0,0,1.36809,195.39,-463.78)">
                        <path d="M134.964,519.767C132.841,519.627 130.711,519.487 128.576,519.347C126.441,519.207 124.301,519.079 122.154,518.962C120.031,518.846 117.896,518.717 115.749,518.577C113.602,518.437 111.456,518.297 109.309,518.157C109.146,514.051 109.029,510.113 108.959,506.345C108.889,502.577 108.854,499.059 108.854,495.792C108.854,490.986 108.906,486.821 109.011,483.297C109.116,479.774 109.216,477.161 109.309,475.457C113.859,474.547 118.082,473.9 121.979,473.515C125.876,473.13 129.131,472.897 131.744,472.815C134.357,472.733 135.979,472.692 136.609,472.692C136.609,474.512 136.551,476.338 136.434,478.17C136.317,480.002 136.166,481.921 135.979,483.927L122.924,485.012C122.901,485.152 122.883,485.421 122.871,485.817C122.86,486.214 122.848,486.652 122.836,487.13C122.825,487.608 122.819,488.052 122.819,488.46L122.819,489.317C123.379,489.317 124.021,489.312 124.744,489.3C125.467,489.288 126.237,489.277 127.054,489.265C127.871,489.253 128.693,489.242 129.521,489.23C130.35,489.218 131.143,489.207 131.901,489.195C132.66,489.183 133.342,489.166 133.949,489.142L133.704,501.042C133.401,501.019 132.864,500.984 132.094,500.937C131.324,500.891 130.443,500.838 129.451,500.78C128.46,500.722 127.48,500.669 126.511,500.622C125.543,500.576 124.697,500.535 123.974,500.5C123.251,500.465 122.761,500.447 122.504,500.447C122.481,500.634 122.463,500.885 122.451,501.2C122.44,501.515 122.428,501.847 122.416,502.197C122.405,502.547 122.393,502.903 122.381,503.265C122.37,503.627 122.358,503.947 122.346,504.227C122.335,504.507 122.329,504.729 122.329,504.892L128.944,504.892C129.901,504.892 130.834,504.91 131.744,504.945C132.654,504.98 133.506,505.027 134.299,505.085C135.092,505.143 135.769,505.196 136.329,505.242C136.329,506.409 136.276,507.751 136.171,509.267C136.066,510.784 135.944,512.283 135.804,513.765C135.664,515.247 135.518,516.536 135.366,517.632C135.215,518.729 135.081,519.441 134.964,519.767Z" style="fill-rule:nonzero;"/>
                    </g>
                    <g transform="matrix(1.03475,0,0,1.03475,352.51,-293.555)">
                        <path d="M127.424,520.312C125.939,520.312 124.216,520.297 122.256,520.267C120.295,520.237 118.32,520.171 116.33,520.067C114.34,519.963 112.513,519.807 110.85,519.599C110.79,517.817 110.731,515.492 110.672,512.626C110.612,509.76 110.56,506.641 110.516,503.27C110.471,499.898 110.449,496.609 110.449,493.401C110.449,488.321 110.493,483.027 110.582,477.517C110.672,472.007 110.79,466.386 110.939,460.653C111.563,460.623 112.565,460.594 113.946,460.564C115.327,460.534 116.879,460.497 118.602,460.453C120.325,460.408 122.003,460.371 123.637,460.341C125.271,460.311 126.637,460.297 127.736,460.297C127.914,463.178 128.07,466.527 128.204,470.344C128.337,474.161 128.441,478.17 128.516,482.373C128.59,486.576 128.627,490.727 128.627,494.826C128.627,496.935 128.612,499 128.583,501.02C128.553,503.039 128.516,504.978 128.471,506.834C128.427,508.69 128.352,510.443 128.248,512.091C128.144,513.74 128.026,515.262 127.892,516.658C127.758,518.054 127.602,519.272 127.424,520.312Z" style="fill-rule:nonzero;"/>
                    </g>
                </g>
            </g>
        </g>
    </g>
</svg>
